# xmcd
#
# Track frame offsets:
#	182
#	17302
#	33982
#	63335
#	94960
#	125455
#
# Disc length: 2000 seconds
#
# Revision: 0
# Processed by: cddbd v1.5.2PL0 Copyright (c) Steve Scherf et al.
# Submitted via: EasyCDDAExtractor 2010.6.0.0
#
DISCID=4207ce06
DTITLE=B.G. The Prince Of Rap - Can't Love You
DYEAR=1995
DGENRE=Dance
TTITLE0=Can't Love You (Radio Edit)
TTITLE1=Can't Love You (Tzant Edit)
TTITLE2=Can't Love You (Extended Mix)
TTITLE3=Can't Love You (Tzant Remix)
TTITLE4=Can't Love You (Tinman's Voice In Love Mix)
TTITLE5=Can't Love You (Tinman's Nemesis Dub)
EXTD=
EXTT0=
EXTT1=
EXTT2=
EXTT3=
EXTT4=
EXTT5=
PLAYORDER=
